<svg width="132" height="132" viewBox="0 0 132 132" fill="none" xmlns="http://www.w3.org/2000/svg">
<path fill-rule="evenodd" clip-rule="evenodd" d="M6.69565 0C2.99775 0 0 2.99774 0 6.69565V125.304C0 129.002 2.99774 132 6.69565 132H125.304C129.002 132 132 129.002 132 125.304V100.435H126.261V125.304C126.261 125.832 125.832 126.261 125.304 126.261H6.69565C6.16738 126.261 5.73913 125.832 5.73913 125.304V6.69565C5.73913 6.16738 6.16737 5.73913 6.69565 5.73913H125.304C125.832 5.73913 126.261 6.16737 126.261 6.69565V32.5217H132V6.69565C132 2.99775 129.002 0 125.304 0H6.69565ZM43.196 25.6504V103.759H99V94.5H54.1386V25.6504H43.196Z" fill="#53A853"/>
</svg>
