<svg width="870" height="870" viewBox="0 0 870 870" fill="none" xmlns="http://www.w3.org/2000/svg">
<defs>
    <linearGradient id="grad-1" x1="0%" y1="0%" x2="100%" y2="0%" gradientUnits="userSpaceOnUse">
    <stop stop-color="#01765A"/>
    <stop offset="0.65" stop-color="#004736"/>
    <stop offset="1" stop-color="#006F52"/>
    </linearGradient>
</defs>
<g fill="url(#grad-1)">
<path d="M141.983 68.702C123.031 96.9288 118.192 116.284 118.192 163.867C118.394 205.199 121.619 223.748 134.322 250.765C143.999 271.733 152.871 283.225 173.839 301.573C205.493 329.195 252.067 354.599 304.69 372.543C329.288 381.011 394.612 394.923 421.629 397.745L434.735 398.955L429.493 394.318C426.67 391.697 415.581 382.624 404.895 373.954C385.54 358.228 354.893 330.808 309.932 289.072C271.826 253.386 227.067 200.36 202.469 161.85C180.291 126.97 167.186 98.5417 158.516 67.4923C156.903 61.2421 154.282 56 152.871 56C151.459 56 146.62 61.847 141.983 68.702Z"/>
<path d="M389.169 66.8875C346.224 71.5248 315.981 78.9847 280.496 93.9046C257.914 103.381 226.058 119.914 221.22 124.551C217.59 127.978 217.59 128.382 223.437 136.85C226.865 141.688 231.099 148.544 232.914 152.173L236.139 158.624L254.89 146.124C285.939 125.357 328.28 110.639 379.289 103.179C407.718 99.1467 466.389 100.155 489.979 105.397C578.893 124.954 649.056 166.488 700.671 229.998C733.938 271.128 756.116 318.509 769.423 377.382C776.883 411.052 779.101 436.053 777.891 471.337C775.069 545.533 757.931 593.921 708.131 667.916C696.235 685.658 682.122 708.24 676.678 718.321C671.235 728.2 665.186 739.087 662.968 742.112L658.936 747.959L669.622 741.91C701.074 723.966 731.317 690.497 763.778 637.673C805.11 570.937 819.425 500.37 809.747 410.447C806.32 377.583 801.078 353.591 790.19 322.541C765.996 252.176 715.591 182.617 656.516 138.261C614.176 106.405 549.255 79.1863 492.196 69.307C466.389 64.6697 420.218 63.6616 389.169 66.8875Z"/>
<path d="M351.264 157.818C353.079 171.327 360.136 187.254 371.023 201.973C380.902 215.28 388.564 221.328 404.694 228.788C415.178 233.627 419.21 234.232 437.154 234.232C448.647 234.433 457.921 234.635 457.921 235.038C457.921 235.442 454.09 241.289 449.453 247.942C438.162 264.676 433.324 280.604 433.324 301.976C433.122 335.848 441.993 357.018 475.664 401.778C501.068 435.852 514.778 460.449 525.06 491.499C534.738 520.33 537.158 534.847 537.359 562.065C537.359 590.695 532.924 615.898 522.439 646.141C506.108 693.723 483.728 726.99 447.437 758.241C422.033 780.016 414.976 785.057 397.234 794.735C387.757 799.775 378.281 805.824 376.467 807.84C373.039 811.671 373.442 811.671 392.798 813.082C423.444 815.501 477.881 812.88 500.261 808.243C523.044 803.404 559.739 791.509 573.248 784.654C584.337 779.008 620.225 744.128 632.12 727.394C650.669 701.385 673.452 649.165 679.098 620.132C681.517 607.43 681.921 595.736 681.114 572.146C679.904 537.065 676.275 519.524 664.984 495.128C651.678 466.094 640.588 451.981 600.063 411.859C549.053 361.454 540.787 348.953 540.585 323.348C540.585 315.686 541.795 305.807 543.005 301.17C546.23 290.282 559.941 276.774 574.457 270.12C594.418 260.846 626.475 263.668 644.218 276.37L650.065 280.604L648.855 270.322C646.637 251.168 634.54 235.24 614.781 225.159C609.942 222.74 604.902 218.909 603.289 216.489C596.232 206.005 580.909 193.303 570.425 189.472C551.876 182.617 534.738 181.206 488.971 183.424C443.404 185.44 425.864 184.029 402.879 176.77C383.725 170.318 366.184 161.447 357.918 153.786C353.885 149.955 350.256 146.729 350.055 146.729C349.853 146.729 350.458 151.769 351.264 157.818ZM556.715 212.255C568.005 218.102 570.022 229.595 561.352 237.861C550.465 248.144 539.98 247.136 532.52 234.837C527.077 225.965 527.48 221.933 534.335 215.078C540.988 208.425 547.843 207.618 556.715 212.255Z"/>
<path d="M54.2785 242.7C53.2704 272.136 56.2947 309.436 61.3352 329.195C77.2632 389.681 106.901 426.174 160.532 451.175C189.767 464.683 221.018 471.337 255.293 471.337C273.842 471.337 330.699 465.893 354.087 462.062C388.161 456.417 398.847 453.594 431.509 442.102L444.413 437.464L438.364 434.44C431.912 431.013 396.629 423.553 356.91 417.101C329.893 412.665 291.988 402.383 270.415 393.511C224.849 374.962 178.275 346.332 142.185 314.678C130.894 305 116.982 293.306 111.135 288.871C95.4089 277.177 78.0697 258.628 67.3838 242.498C62.3433 234.635 57.3028 227.578 56.4964 226.57C55.6899 225.562 54.6818 232.821 54.2785 242.7Z"/>
<path d="M42.383 406.213C38.7538 431.214 39.3587 477.99 43.5927 509.241C48.0283 542.105 63.3514 587.469 78.0696 612.269C99.8446 648.762 128.071 685.053 134.725 685.053C136.338 685.053 136.943 686.061 136.338 687.07C135.733 688.279 136.539 689.691 138.152 690.296C139.967 690.9 141.378 692.513 141.378 693.521C141.378 694.53 149.241 704.006 158.919 714.691C179.484 736.87 197.227 748.765 241.18 769.734C271.221 784.25 294.408 792.718 309.327 794.936C319.812 796.549 337.957 790.5 365.176 776.387C411.549 752.193 434.735 732.837 458.526 698.562C492.398 649.972 506.31 602.188 503.89 543.92C502.882 524.363 501.673 517.104 495.221 497.547C491.188 484.845 487.559 473.151 486.954 471.74C485.341 466.094 478.083 469.724 469.615 480.611C448.243 508.435 439.17 517.709 420.017 530.411C409.331 537.669 396.83 545.331 392.193 547.549C371.829 557.831 313.36 574.969 264.769 585.05C237.349 590.897 197.832 593.115 171.218 590.494C137.547 587.066 100.651 580.614 97.8284 577.59C94.4008 573.961 85.5296 545.533 81.0939 523.758C75.0454 494.926 72.8275 473.151 72.8275 444.118V417.706L62.9482 408.028C57.3028 402.584 51.8591 395.528 50.4478 392.302C49.238 389.277 47.4235 386.656 46.8186 386.656C46.0121 386.656 43.9959 395.528 42.383 406.213ZM487.156 508.435C489.575 536.056 475.664 574.364 451.066 608.035C437.759 625.979 408.927 654.407 389.774 668.722C360.539 690.094 314.973 709.046 277.068 715.498C248.64 720.337 198.235 714.49 183.315 704.611C179.484 701.989 174.444 695.739 171.621 689.691C168.798 684.045 164.766 677.19 162.548 674.771L158.516 670.335L162.548 671.747C171.016 674.972 197.63 680.819 213.76 683.239C233.72 686.061 269.003 684.65 289.77 680.215C322.836 673.158 364.37 651.585 391.185 627.39C417.597 603.599 445.421 563.275 458.123 530.21C462.558 518.314 466.994 510.652 473.244 503.999C478.083 498.958 482.115 493.918 482.115 492.91C482.115 492.103 482.922 491.7 483.93 492.305C484.938 492.91 486.349 500.168 487.156 508.435Z"/>
<path d="M414.573 478.595C378.483 493.112 356.305 497.547 299.65 501.58C284.125 502.588 261.947 503.999 250.253 504.806C238.559 505.612 226.462 506.217 223.034 506.015C214.163 505.612 255.092 518.717 277.875 523.556C305.9 529.605 330.699 530.814 349.046 527.185C383.12 520.33 422.638 495.329 436.549 471.74C437.356 470.53 437.759 469.32 437.356 469.522C436.953 469.724 426.872 473.756 414.573 478.595Z"/>
<path d="M768.754 101.364C763.766 128.459 759.722 132.502 732.628 137.49C759.723 142.478 763.766 146.522 768.754 173.617C773.742 146.522 777.786 142.478 804.88 137.49C777.786 132.502 773.742 128.459 768.754 101.364Z"/>
<path d="M807.963 152.192C804.792 169.423 802.22 171.995 784.989 175.167C802.22 178.339 804.792 180.911 807.963 198.142C811.135 180.911 813.707 178.339 830.938 175.167C813.707 171.995 811.136 169.423 807.963 152.192Z"/>
</g>
</svg>
